<svg width="100" height="100" viewBox="0 0 100 100" fill="none" xmlns="http://www.w3.org/2000/svg">
  <rect width="100" height="100" rx="12" fill="url(#gradient)"/>
  <path d="M50 25C40 25 32 30 32 37C32 42 36 46 42 48C46 49 48 51 48 54C48 57 45 59 40 59C35 59 30 56 28 52" stroke="white" stroke-width="4" stroke-linecap="round"/>
  <path d="M50 75C60 75 68 70 68 63C68 58 64 54 58 52C54 51 52 49 52 46C52 43 55 41 60 41C65 41 70 44 72 48" stroke="white" stroke-width="4" stroke-linecap="round"/>
  <defs>
    <linearGradient id="gradient" x1="0" y1="0" x2="100" y2="100" gradientUnits="userSpaceOnUse">
      <stop offset="0%" stop-color="#28F0F1"/>
      <stop offset="100%" stop-color="#3857F9"/>
    </linearGradient>
  </defs>
</svg>

